<svg width="166" height="166" viewBox="0 0 166 166" fill="none" xmlns="http://www.w3.org/2000/svg">
<rect width="166" height="166" fill="#292929"/>
<path d="M134.609 25.8594H30.3906C27.8843 25.8594 25.8594 27.8843 25.8594 30.3906V134.609C25.8594 137.116 27.8843 139.141 30.3906 139.141H134.609C137.116 139.141 139.141 137.116 139.141 134.609V30.3906C139.141 27.8843 137.116 25.8594 134.609 25.8594ZM94.7485 59.688H114.346V64.46H94.7485V59.688ZM82.5 99.0391C81.5834 100.779 80.2744 102.282 78.6768 103.429C77.0059 104.59 75.1509 105.439 73.1826 105.935C71.1234 106.487 68.9991 106.758 66.8672 106.742H43.418V58.4419H66.2158C68.5239 58.4419 70.6196 58.6543 72.5312 59.0508C74.4287 59.4473 76.043 60.127 77.4023 61.0474C78.7476 61.9678 79.8096 63.1997 80.5601 64.729C81.2964 66.2441 81.6787 68.1416 81.6787 70.3931C81.6787 72.8286 81.1265 74.8394 80.022 76.4678C78.9033 78.0962 77.2891 79.4131 75.0942 80.4468C78.082 81.2964 80.2769 82.8115 81.7212 84.9355C83.1938 87.0879 83.916 89.665 83.916 92.6953C83.916 95.1592 83.4487 97.269 82.5 99.0391ZM121.979 91.5625H96.7168C96.7168 94.3096 97.6655 96.9434 99.0957 98.3594C100.54 99.7612 102.607 100.469 105.312 100.469C107.266 100.469 108.923 99.9736 110.339 98.9966C111.741 98.0195 112.59 96.9858 112.902 95.9097H121.37C120.01 100.115 117.943 103.117 115.139 104.93C112.364 106.742 108.965 107.648 105.015 107.648C102.253 107.648 99.7754 107.195 97.5522 106.332C95.4141 105.496 93.4883 104.222 91.9023 102.579C90.3386 100.892 89.13 98.9083 88.3481 96.7451C87.4844 94.3521 87.0596 91.8315 87.0879 89.2969C87.0879 86.6772 87.5269 84.2417 88.3765 81.9761C90.0049 77.5723 93.3892 74.0464 97.708 72.2197C100.016 71.2568 102.494 70.7754 105 70.8037C107.974 70.8037 110.551 71.3701 112.789 72.5312C114.942 73.64 116.813 75.2291 118.254 77.1758C119.685 79.1157 120.69 81.3247 121.327 83.8169C121.936 86.2666 122.148 88.8438 121.979 91.5625ZM104.703 78.0254C103.174 78.0254 101.885 78.2944 100.894 78.8184C99.9028 79.3423 99.0815 79.9937 98.4585 80.7441C97.8651 81.4688 97.4266 82.3073 97.1699 83.208C96.9434 83.9585 96.7876 84.7231 96.731 85.502H112.378C112.151 83.0522 111.302 81.2397 110.169 79.9653C108.979 78.7051 107.068 78.0254 104.703 78.0254ZM69.5151 76.5952C70.7471 75.7031 71.3418 74.2305 71.3418 72.2056C71.3843 71.2427 71.186 70.2939 70.7612 69.4302C70.3789 68.7363 69.8125 68.1558 69.1187 67.7451C68.3992 67.3088 67.6002 67.02 66.7681 66.8955C65.8618 66.7256 64.9414 66.6406 64.0352 66.6548H54.0806V77.9404H64.8564C66.7114 77.9546 68.2832 77.5015 69.5151 76.5952ZM71.186 86.7905C69.7983 85.7285 67.9434 85.2046 65.6353 85.2046H54.0522V98.5151H65.4087C66.4707 98.5151 67.4478 98.416 68.3965 98.2178C69.3452 98.0195 70.1948 97.6797 70.917 97.1982C71.6392 96.731 72.2197 96.0938 72.6587 95.2725C73.0835 94.4512 73.2959 93.4033 73.2959 92.1431C73.2959 89.6367 72.5879 87.8667 71.186 86.7905Z" fill="white"/>
</svg>
