<svg width="43" height="43" viewBox="0 0 43 43" fill="none" xmlns="http://www.w3.org/2000/svg">
<circle cx="21.5" cy="21.5" r="21" stroke="black"/>
<path d="M24.9699 21.4996C24.9699 19.9246 23.6499 18.6646 21.9999 18.6646C20.3499 18.6646 19.0299 19.9246 19.0299 21.4996C19.0299 23.0746 20.3499 24.3346 21.9999 24.3346C23.6499 24.3346 24.9699 23.0746 24.9699 21.4996ZM26.5099 21.4996C26.5099 23.9146 24.5299 25.8046 21.9999 25.8046C19.4699 25.8046 17.4899 23.9146 17.4899 21.4996C17.4899 19.0846 19.4699 17.1946 21.9999 17.1946C24.5299 17.1946 26.5099 19.0846 26.5099 21.4996ZM27.7199 16.9846C27.7199 17.6146 27.2799 18.0346 26.6199 18.0346C25.9599 18.0346 25.5199 17.6146 25.5199 16.9846C25.5199 16.3546 25.9599 15.9346 26.6199 15.9346C27.2799 15.9346 27.7199 16.4596 27.7199 16.9846ZM21.9999 14.5696C20.6799 14.5696 17.9299 14.4646 16.8299 14.8846C16.0599 15.1996 15.3999 15.8296 15.1799 16.5646C14.7399 17.6146 14.8499 20.2396 14.8499 21.4996C14.8499 22.7596 14.7399 25.3846 15.1799 26.4346C15.3999 27.1696 16.0599 27.7996 16.8299 28.0096C17.9299 28.4296 20.7899 28.3246 21.9999 28.3246C23.2099 28.3246 26.0699 28.4296 27.1699 28.0096C27.9399 27.6946 28.4899 27.1696 28.8199 26.4346C29.2599 25.2796 29.1499 22.6546 29.1499 21.4996C29.1499 20.3446 29.2599 17.6146 28.8199 16.5646C28.5999 15.8296 27.9399 15.1996 27.1699 14.9896C26.0699 14.4646 23.3199 14.5696 21.9999 14.5696ZM30.7999 21.4996V24.9646C30.7999 26.2246 30.3599 27.4846 29.3699 28.5346C28.3799 29.4796 27.0599 29.8996 25.6299 29.8996H18.3699C17.0499 29.8996 15.7299 29.4796 14.6299 28.5346C13.7499 27.5896 13.1999 26.3296 13.1999 24.9646V21.4996V18.0346C13.1999 16.6696 13.7499 15.4096 14.6299 14.4646C15.7299 13.6246 17.0499 13.0996 18.3699 13.0996H25.6299C26.9499 13.0996 28.2699 13.5196 29.3699 14.4646C30.2499 15.4096 30.7999 16.6696 30.7999 18.0346V21.4996Z" fill="black"/>
</svg>
