<svg width="166" height="166" viewBox="0 0 166 166" fill="none" xmlns="http://www.w3.org/2000/svg">
<rect width="166" height="166" fill="#292929"/>
<path d="M134.609 25.8594H30.3906C27.8843 25.8594 25.8594 27.8843 25.8594 30.3906V134.609C25.8594 137.116 27.8843 139.141 30.3906 139.141H134.609C137.116 139.141 139.141 137.116 139.141 134.609V30.3906C139.141 27.8843 137.116 25.8594 134.609 25.8594ZM87.5693 56.2612C86.5498 54.7178 84.7231 53.939 82.0894 53.939C81.9053 53.939 81.6646 53.9531 81.3389 53.9814C81.0273 54.0098 80.4043 54.1938 79.5122 54.5054C78.6162 54.8259 77.7645 55.2589 76.9775 55.7939C76.1987 56.332 75.3491 57.21 74.4287 58.3994C73.5225 59.603 72.8003 61.0049 72.2622 62.6191L58.9517 61.4297C58.9517 59.6738 59.2915 57.9321 59.9429 56.2046C60.5942 54.477 61.6138 52.8203 62.9731 51.2485C64.3325 49.6626 65.9609 48.2749 67.8584 47.0854C69.7559 45.8818 72.0498 44.9331 74.7119 44.2109C77.3882 43.4888 80.2485 43.1348 83.3355 43.1348C86.3516 43.1348 89.0845 43.5029 91.52 44.2251C93.9556 44.9614 95.9238 45.8535 97.3823 46.9297C98.7876 47.9435 100.025 49.1715 101.05 50.5688C102.027 51.9282 102.707 53.1885 103.089 54.3496C103.471 55.5107 103.655 56.5728 103.655 57.5781V83.4204C103.655 84.3267 103.854 85.2612 104.264 86.2241C104.675 87.187 105.156 88.0366 105.708 88.7729C106.261 89.5093 106.827 90.1748 107.408 90.7979C107.988 91.4067 108.484 91.8882 108.909 92.1997L109.489 92.6812L99.2231 102.508C98.0195 101.418 96.8301 100.328 95.6548 99.1948C94.4795 98.062 93.6016 97.2124 93.0352 96.6318L92.1714 95.7539C91.8315 95.4282 91.4634 94.9468 91.0386 94.3096C89.8916 96.0371 88.4189 97.5381 86.6348 98.8125C84.8364 100.087 82.9106 101.021 80.8716 101.602C78.8184 102.183 76.7085 102.522 74.542 102.607C72.3755 102.692 70.2939 102.395 68.3257 101.687C66.3574 100.979 64.5732 100.03 63.0015 98.8125C61.4297 97.5947 60.1836 95.9521 59.249 93.8564C58.3145 91.7607 57.8472 89.396 57.8472 86.7197C57.8472 84.2559 58.272 82.0044 59.1074 79.9653C59.957 77.9121 61.0332 76.2129 62.3643 74.8535C63.6953 73.4941 65.2954 72.2764 67.1787 71.2144C69.062 70.1523 70.917 69.3169 72.7295 68.708C74.542 68.1133 76.4961 67.6035 78.606 67.1929C80.7158 66.7822 82.5142 66.5132 84.0151 66.3857C85.5161 66.2583 87.0171 66.1592 88.5181 66.1025V60.5234C88.5181 58.6118 88.1924 57.1958 87.5693 56.2612ZM113.128 110.013C112.732 110.48 112.066 111.118 111.132 111.925C110.197 112.732 108.753 113.723 106.813 114.913C104.873 116.102 102.735 117.178 100.441 118.155C98.1328 119.132 95.3008 119.982 91.9307 120.704C88.5747 121.426 85.1055 121.78 81.5513 121.78C77.9546 121.78 74.3721 121.327 70.7754 120.421C67.1787 119.515 64.0352 118.396 61.3164 117.065C58.6118 115.734 55.9922 114.205 53.5142 112.505C51.022 110.792 49.0254 109.263 47.5103 107.903C46.0093 106.544 44.7349 105.255 43.7153 104.066C43.4746 103.797 43.3188 103.556 43.2622 103.344C43.2056 103.131 43.2197 102.947 43.3047 102.82C43.3896 102.692 43.5171 102.593 43.6729 102.508C43.842 102.433 44.028 102.404 44.212 102.424C44.396 102.444 44.5715 102.512 44.7207 102.622C50.5122 106.048 55.0435 108.47 58.3003 109.9C70.0391 115.054 82.0894 116.371 94.4512 113.851C100.186 112.675 106.077 110.707 112.137 107.932C112.59 107.762 112.987 107.719 113.312 107.804C113.638 107.889 113.808 108.144 113.808 108.569C113.808 108.965 113.582 109.461 113.128 110.013ZM121.61 105.907C121.355 107.479 120.917 108.965 120.322 110.41C119.302 112.831 118.014 114.658 116.484 115.847C115.975 116.258 115.578 116.385 115.309 116.244C115.04 116.102 115.04 115.748 115.309 115.196C115.946 113.879 116.612 112.109 117.32 109.857C118.028 107.62 118.127 106.176 117.617 105.539C117.461 105.326 117.235 105.17 116.909 105.029C116.598 104.901 116.187 104.816 115.691 104.76C115.196 104.703 114.743 104.675 114.36 104.646C113.964 104.618 113.44 104.618 112.774 104.646C112.109 104.675 111.642 104.703 111.344 104.731C110.538 104.81 109.731 104.881 108.923 104.944C108.739 104.972 108.541 105 108.342 105.015C108.13 105.029 107.96 105.043 107.847 105.057L107.464 105.1C107.323 105.114 107.224 105.128 107.153 105.128H106.7L106.558 105.1L106.473 105.029L106.402 104.901C106.218 104.434 106.926 103.854 108.526 103.146C110.126 102.438 111.684 101.999 113.185 101.829C114.573 101.616 116.201 101.616 118.07 101.786C119.939 101.956 121.086 102.31 121.511 102.834C121.837 103.33 121.865 104.349 121.61 105.907ZM78.6768 76.1987C77.0342 76.8926 75.7173 77.9263 74.7402 79.314C73.7632 80.7017 73.2676 82.3726 73.2676 84.3408C73.2676 86.8613 74.3296 88.8013 76.4395 90.1748C78.436 91.4634 80.5317 91.7891 82.7266 91.1377C85.2612 90.4014 86.9746 88.603 87.8809 85.7427C88.3057 84.4258 88.5181 82.9531 88.5181 81.3105V74.2021C86.7339 74.2588 85.063 74.4287 83.4912 74.7261C81.9194 75.0234 80.3193 75.519 78.6768 76.1987Z" fill="white"/>
</svg>
