<svg width="166" height="166" viewBox="0 0 166 166" fill="none" xmlns="http://www.w3.org/2000/svg">
<rect width="166" height="166" fill="#292929"/>
<g clip-path="url(#clip0)">
<path d="M54.9117 32.016L75.0982 88.6644V88.6328L76.6919 93.0863C85.5723 117.958 90.3376 131.29 90.3536 131.305L93.3434 131.485C98.2586 131.684 104.35 132.243 108.965 132.782C110.027 132.915 110.942 132.947 111.009 132.915L89.1455 71.5165L78.8371 42.6841C77.6259 39.2421 76.3976 35.806 75.1524 32.3758L75.0185 31.9971H54.9309L54.9117 32.016ZM91.0676 32.0507L91.0166 54.3749L90.9847 76.7148L89.1264 71.5196L86.7358 121.215C89.0945 127.808 90.3536 131.324 90.3727 131.34C90.3918 131.356 91.7338 131.454 93.3434 131.52C98.2745 131.735 104.35 132.277 108.981 132.836C110.043 132.95 110.974 133 111.025 132.95C111.091 132.918 111.107 110.149 111.107 82.4182L111.076 32.0507H91.0676ZM54.9117 32.016V82.4655C54.9117 110.215 54.9436 132.95 54.9787 132.981C55.0137 133.013 56.7382 132.849 58.8292 132.618C60.9604 132.354 63.0964 132.129 65.2361 131.943C67.445 131.728 74.0336 131.302 74.7986 131.302C75.0153 131.302 75.0312 130.169 75.0631 109.931L75.095 88.5444L76.7047 93.0168L77.2689 94.595L79.6914 44.9345L78.8786 42.6336L75.0089 32.0129L54.9117 32.016Z" fill="white"/>
</g>
<defs>
<clipPath id="clip0">
<rect width="102" height="101" fill="white" transform="translate(32 32)"/>
</clipPath>
</defs>
</svg>
