<svg width="166" height="166" viewBox="0 0 166 166" fill="none" xmlns="http://www.w3.org/2000/svg">
<rect width="166" height="166" fill="#292929"/>
<path d="M100.222 145.068L137.441 137.1C137.441 137.1 124.015 47.3237 123.905 46.7292C123.794 46.1415 123.31 45.7452 122.812 45.7452C122.314 45.7452 112.859 45.055 112.859 45.055C112.859 45.055 106.295 38.5702 105.499 37.88C105.313 37.6818 105.105 37.5862 104.905 37.4837L100.222 145.068ZM103.307 37.2923C103.196 37.2923 103.009 37.388 102.913 37.388C102.802 37.388 101.412 37.7912 99.2259 38.4677C97.0264 32.1878 93.1462 26.3863 86.2849 26.3863H85.69C83.6911 23.9195 81.3118 22.8398 79.216 22.8398C63.197 22.8398 55.5195 42.6018 53.1402 52.6263C46.9705 54.5055 42.5024 55.879 41.9836 56.0772C38.4976 57.1568 38.4077 57.2525 38.0134 60.5052C37.6192 62.8558 28.5583 132.18 28.5583 132.18L98.5343 145.157L103.307 37.2923V37.2923ZM85.0813 42.103V42.8C81.2149 43.9822 76.9335 45.26 72.7489 46.5378C75.1421 37.4973 79.6103 33.0625 83.4905 31.3883C84.5004 33.9508 85.0813 37.388 85.0813 42.103V42.103ZM78.718 27.0697C79.4097 27.0697 80.1083 27.261 80.8138 27.7667C75.7508 30.1173 70.169 36.117 67.8727 48.1163C64.6321 49.1404 61.3787 50.1245 58.1133 51.0683C60.8039 41.9185 67.2778 27.0697 78.718 27.0697V27.0697ZM81.4985 80.4517C81.4985 80.4517 77.3209 78.2992 72.3547 78.2992C64.8847 78.2992 64.5873 82.9185 64.5873 84.1007C64.5873 90.3942 81.3118 92.8473 81.3118 107.696C81.3118 119.395 73.8418 126.871 63.695 126.871C51.5493 126.871 45.3797 119.395 45.3797 119.395L48.6651 108.776C48.6651 108.776 55.0423 114.188 60.4027 114.188C61.0465 114.214 61.689 114.111 62.2917 113.886C62.8944 113.66 63.4449 113.318 63.9105 112.877C64.376 112.437 64.7469 111.909 65.001 111.324C65.2552 110.739 65.3873 110.109 65.3896 109.473C65.3896 101.211 51.6531 100.808 51.6531 87.2508C51.6531 75.846 59.9185 64.735 76.7399 64.735C83.2139 64.735 86.3886 66.5937 86.3886 66.5937L81.4985 80.4517V80.4517ZM87.8757 30.6982C91.4585 31.1082 93.7549 35.1262 95.235 39.6567C93.4505 40.2512 91.4516 40.8388 89.2659 41.5222V40.2443C89.2659 36.4108 88.7679 33.2607 87.8757 30.6982V30.6982Z" fill="white"/>
</svg>
