<svg width="166" height="166" viewBox="0 0 166 166" fill="none" xmlns="http://www.w3.org/2000/svg">
<rect width="166" height="166" fill="#292929"/>
<path d="M89.8212 62.3742C87.6545 63.5137 86.8745 65.3949 86.8745 70.5979C86.8745 70.5979 87.9687 69.5552 89.5774 68.9693C90.5691 68.6125 91.5033 68.1146 92.3507 67.4912C94.1816 66.1635 94.4362 64.4704 94.4362 61.6002C94.4362 61.6002 91.4407 61.5142 89.8212 62.3742ZM77.0974 63.605C75.3641 65.1423 74.8332 67.5772 74.8332 67.5772L68.9941 89.835L64.1787 71.5869C63.7074 69.6788 62.8462 67.2439 61.4974 65.6368C59.8182 63.605 56.3841 63.4814 55.9995 63.4814C55.6312 63.4814 52.1591 63.605 50.442 65.669C49.1095 67.2977 48.2428 69.7057 47.7716 71.6245L42.9562 89.8727L37.182 67.5825C37.182 67.5825 36.6837 65.1154 34.9178 63.6104C32.0524 61.111 27.8003 61.6378 27.8003 61.6378L38.8937 103.369C38.8937 103.369 42.5607 103.649 44.3916 102.692C46.7803 101.488 47.9612 100.537 49.4237 94.8284C50.7291 89.7759 54.3637 74.9194 54.6995 73.839C54.8566 73.3123 55.0787 72.0545 56.0049 72.0545C56.9745 72.0545 57.1641 73.2854 57.3103 73.839C57.657 74.8872 61.2591 89.7759 62.597 94.8284C64.0487 100.499 65.2024 101.424 67.6291 102.692C69.4599 103.649 73.127 103.369 73.127 103.369L84.2203 61.6647C84.2095 61.6647 79.9466 61.1325 77.0974 63.605ZM94.4362 68.4425C94.4362 68.4425 93.7374 69.4907 92.1612 70.4152C91.1428 70.9742 90.1732 71.3719 89.117 71.8718C87.3674 72.6995 86.8745 73.6563 86.8745 75.0699V103.375C86.8745 103.375 89.702 103.713 91.5003 102.816C93.862 101.622 94.3874 100.478 94.4307 95.2692V68.4425H94.4362ZM122.126 82.5895L136.204 61.7614C136.204 61.7614 130.267 60.7455 127.315 63.4223C125.419 65.1154 123.318 68.1792 123.318 68.1792L118.161 75.6289C117.874 75.9998 117.598 76.4352 117.078 76.4352C116.542 76.4352 116.206 76.032 115.984 75.6289L110.773 68.2007C110.773 68.2007 108.687 65.1477 106.765 63.4492C103.84 60.767 97.8757 61.7829 97.8757 61.7829L111.975 82.5573L97.8757 103.294C97.8757 103.294 104.083 104.095 107.019 101.413C108.915 99.7197 110.746 96.9139 110.746 96.9139L115.892 89.4803C116.179 89.1148 116.455 88.6902 116.975 88.6902C117.517 88.6902 117.847 89.0933 118.069 89.4803L123.226 96.9139C123.226 96.9139 125.149 99.6552 127.017 101.413C129.932 104.095 136.047 103.294 136.047 103.294L122.126 82.5895Z" fill="white"/>
</svg>
