<svg width="166" height="166" viewBox="0 0 166 166" fill="none" xmlns="http://www.w3.org/2000/svg">
<rect width="166" height="166" fill="#292929"/>
<path d="M115.22 80.5261C115.22 74.4841 113.066 70.3018 111.223 67.0456L110.658 66.1194C108.419 62.4856 106.463 59.2936 106.463 55.5744C106.463 51.0856 109.839 46.8961 114.599 46.8961C114.74 46.8961 114.874 46.9104 115.009 46.9175L115.227 46.9389C106.302 38.6678 94.6195 34.0848 82.4998 34.0996C74.4674 34.0955 66.5602 36.1076 59.4907 39.9548C52.4212 43.8019 46.4116 49.3631 42.0034 56.1373C43.1334 56.1729 44.214 56.2014 45.1251 56.2014C50.1889 56.2014 58.0353 55.5815 58.0353 55.5815C60.6484 55.4248 60.9592 59.2936 58.3461 59.6071C58.3461 59.6071 55.7259 59.9206 52.802 60.0703L70.4583 113.038L81.052 80.9323L73.4951 60.0631C70.8891 59.9064 68.4172 59.6 68.4172 59.6C65.8041 59.4433 66.1148 55.4105 68.7209 55.5673C68.7209 55.5673 76.7298 56.1871 81.4899 56.1871C86.5608 56.1871 94.4143 55.5673 94.4143 55.5673C97.0274 55.4105 97.3311 59.2865 94.7179 59.6C94.7179 59.6 92.0907 59.9064 89.1739 60.0631L106.689 112.624L111.52 96.3294L111.901 95.0968C113.808 88.9693 115.213 84.4449 115.213 80.519L115.22 80.5261ZM34.0299 82.9985C34.0294 92.1808 36.5913 101.178 41.4224 108.96C46.2535 116.742 53.1587 122.995 61.3476 127.003L38.2179 63.0913C35.4483 69.3556 34.0211 76.1393 34.0299 82.9985Z" fill="white"/>
<path d="M68.806 129.905L83.3548 87.2757L98.2496 128.458C98.3485 128.693 98.4615 128.914 98.5957 129.128C88.9938 132.541 78.5698 132.812 68.806 129.905ZM125.024 59.5381C125.235 61.0985 125.355 62.7657 125.355 64.5683C125.355 69.5273 124.437 75.1062 121.669 82.0816L106.866 125.259C117.789 118.856 125.802 108.402 129.195 96.125C132.588 83.8481 131.094 70.7195 125.031 59.5381H125.024Z" fill="white"/>
<path fill-rule="evenodd" clip-rule="evenodd" d="M26 83C26 51.5716 51.3473 26 82.5 26C113.646 26 139 51.5716 139 83C139 114.428 113.646 140 82.5 140C51.3473 140 26 114.428 26 83ZM28.5919 83C28.5919 112.989 52.7739 137.385 82.5 137.385C112.219 137.385 136.401 112.989 136.401 83C136.401 53.0037 112.219 28.6149 82.5 28.6149C52.7669 28.6149 28.5919 53.0037 28.5919 83Z" fill="white"/>
</svg>
