<svg width="71" height="71" viewBox="0 0 71 71" fill="none" xmlns="http://www.w3.org/2000/svg">
<g clip-path="url(#clip0)">
<path d="M40.8071 60.1368L49.56 23.3517C49.6724 22.8788 49.6569 22.3845 49.5148 21.9197C49.3728 21.4548 49.1094 21.0362 48.7518 20.707C48.3942 20.3778 47.9553 20.1499 47.4803 20.0466C47.0053 19.9434 46.5114 19.9687 46.0494 20.1198L10.1123 31.8782C9.58325 32.0513 9.11959 32.3818 8.78334 32.8255C8.4471 33.2692 8.25428 33.8049 8.23067 34.3611C8.20706 34.9173 8.35377 35.4674 8.65121 35.938C8.94864 36.4086 9.38261 36.7772 9.89514 36.9945L26.929 44.2178C27.012 44.253 27.0802 44.3158 27.1222 44.3955L35.7261 60.7753C35.8732 61.0564 36.0675 61.31 36.3007 61.5252C36.6528 61.8456 37.0823 62.0687 37.5469 62.1725C38.0115 62.2763 38.4951 62.2572 38.9501 62.117C39.4051 61.9768 39.8156 61.7205 40.1413 61.3732C40.4669 61.026 40.6964 60.5998 40.8071 60.1368ZM38.1957 59.8913C38.1164 59.9052 38.0348 59.8925 37.9634 59.8552C37.8921 59.818 37.835 59.7582 37.8011 59.6852L29.3216 43.5426L37.2285 34.9541C37.439 34.7254 37.5501 34.4225 37.5372 34.112C37.5244 33.8014 37.3887 33.5087 37.1601 33.2982C36.9314 33.0877 36.6285 32.9766 36.318 32.9895C36.0074 33.0023 35.7147 33.138 35.5042 33.3666L27.5972 41.9553L10.8103 34.8368C10.7371 34.8058 10.675 34.7532 10.6325 34.6859C10.59 34.6187 10.5691 34.5401 10.5724 34.4606C10.5758 34.3811 10.6034 34.3046 10.6514 34.2412C10.6995 34.1778 10.7657 34.1306 10.8413 34.1059L46.7784 22.3474C46.8444 22.3258 46.915 22.3222 46.9828 22.337C47.0507 22.3517 47.1134 22.3843 47.1645 22.4313C47.2156 22.4783 47.2532 22.5381 47.2735 22.6045C47.2938 22.6709 47.296 22.7416 47.2799 22.8091L38.5269 59.5941C38.5121 59.6732 38.4716 59.7452 38.4118 59.7989C38.3519 59.8527 38.2759 59.8851 38.1957 59.8913Z" fill="white"/>
</g>
<defs>
<clipPath id="clip0">
<rect width="50" height="50" fill="white" transform="translate(33.8655) rotate(42.6337)"/>
</clipPath>
</defs>
</svg>
