<svg width="43" height="43" viewBox="0 0 43 43" fill="none" xmlns="http://www.w3.org/2000/svg">
<circle cx="21.5" cy="21.5" r="21" stroke="black"/>
<path d="M24.9699 21.4998C24.9699 19.9248 23.6499 18.6649 21.9999 18.6649C20.3499 18.6649 19.0299 19.9248 19.0299 21.4998C19.0299 23.0748 20.3499 24.3348 21.9999 24.3348C23.6499 24.3348 24.9699 23.0748 24.9699 21.4998ZM26.5099 21.4998C26.5099 23.9148 24.5299 25.8048 21.9999 25.8048C19.4699 25.8048 17.4899 23.9148 17.4899 21.4998C17.4899 19.0848 19.4699 17.1949 21.9999 17.1949C24.5299 17.1949 26.5099 19.0848 26.5099 21.4998ZM27.7199 16.9849C27.7199 17.6149 27.2799 18.0349 26.6199 18.0349C25.9599 18.0349 25.5199 17.6149 25.5199 16.9849C25.5199 16.3549 25.9599 15.9349 26.6199 15.9349C27.2799 15.9349 27.7199 16.4599 27.7199 16.9849ZM21.9999 14.5699C20.6799 14.5699 17.9299 14.4649 16.8299 14.8849C16.0599 15.1999 15.3999 15.8299 15.1799 16.5649C14.7399 17.6149 14.8499 20.2398 14.8499 21.4998C14.8499 22.7598 14.7399 25.3848 15.1799 26.4348C15.3999 27.1698 16.0599 27.7998 16.8299 28.0098C17.9299 28.4298 20.7899 28.3248 21.9999 28.3248C23.2099 28.3248 26.0699 28.4298 27.1699 28.0098C27.9399 27.6948 28.4899 27.1698 28.8199 26.4348C29.2599 25.2798 29.1499 22.6548 29.1499 21.4998C29.1499 20.3448 29.2599 17.6149 28.8199 16.5649C28.5999 15.8299 27.9399 15.1999 27.1699 14.9899C26.0699 14.4649 23.3199 14.5699 21.9999 14.5699ZM30.7999 21.4998V24.9648C30.7999 26.2248 30.3599 27.4848 29.3699 28.5348C28.3799 29.4798 27.0599 29.8998 25.6299 29.8998H18.3699C17.0499 29.8998 15.7299 29.4798 14.6299 28.5348C13.7499 27.5898 13.1999 26.3298 13.1999 24.9648V21.4998V18.0349C13.1999 16.6699 13.7499 15.4099 14.6299 14.4649C15.7299 13.6249 17.0499 13.0999 18.3699 13.0999H25.6299C26.9499 13.0999 28.2699 13.5199 29.3699 14.4649C30.2499 15.4099 30.7999 16.6699 30.7999 18.0349V21.4998Z" fill="black"/>
</svg>
