<svg width="43" height="43" viewBox="0 0 43 43" fill="none" xmlns="http://www.w3.org/2000/svg">
<circle cx="21.5" cy="21.5" r="21" stroke="black"/>
<path d="M16.5296 17.2968C17.3856 17.2968 18.0795 16.4396 18.0795 15.3823C18.0795 14.3249 17.3856 13.4678 16.5296 13.4678C15.6737 13.4678 14.9798 14.3249 14.9798 15.3823C14.9798 16.4396 15.6737 17.2968 16.5296 17.2968Z" fill="black"/>
<path d="M19.5429 18.7488V29.3705H22.2126V24.1178C22.2126 22.7318 22.4237 21.3896 23.8148 21.3896C25.1869 21.3896 25.2039 22.9742 25.2039 24.2053V29.3713H27.875V23.5465C27.875 20.6852 27.3763 18.4863 24.6691 18.4863C23.3693 18.4863 22.498 19.3675 22.1417 20.2013H22.1056V18.7488H19.5429ZM15.1923 18.7488H17.8662V29.3705H15.1923V18.7488Z" fill="black"/>
</svg>
