<svg width="43" height="43" viewBox="0 0 43 43" fill="none" xmlns="http://www.w3.org/2000/svg">
<circle cx="21.5" cy="21.5" r="21" stroke="black"/>
<path d="M21.9999 11.5C16.7399 11.5 12.4761 15.977 12.4761 21.5C12.4761 27.023 16.7399 31.5 21.9999 31.5C27.2599 31.5 31.5237 27.023 31.5237 21.5C31.5237 15.977 27.2599 11.5 21.9999 11.5ZM21.9999 12.949C24.0747 12.949 25.9685 13.764 27.4066 15.105C26.3499 16.5685 24.7447 17.543 23.1361 18.2025C22.2255 16.4612 21.205 14.7858 20.0814 13.1875C20.7098 13.0284 21.354 12.9484 22.0004 12.949H21.9999ZM18.5352 13.759C19.5971 15.427 20.6256 16.9735 21.5652 18.724C19.189 19.3705 16.5037 19.7585 14.0233 19.765C14.5461 17.101 16.2504 14.889 18.5352 13.7595V13.759ZM28.3099 16.094C29.4867 17.604 30.1341 19.4924 30.1437 21.4435C28.2599 21.0535 26.3866 20.9515 24.479 21.1535C24.2647 20.592 24.0047 20.0585 23.7556 19.4835C25.3999 18.787 27.158 17.595 28.3099 16.0935V16.094ZM22.2266 20.047C22.4304 20.502 22.6666 20.985 22.8885 21.4785C20.2361 22.7065 17.4147 24.3475 15.9504 27.2245C14.5447 25.5911 13.7955 23.4499 13.8599 21.2495C16.7004 21.2355 19.4885 20.8625 22.2266 20.047ZM26.5304 22.3785C27.7156 22.3788 28.8958 22.5384 30.0423 22.8535C29.8655 24.0116 29.4637 25.1192 28.8618 26.1072C28.26 27.0953 27.4709 27.9428 26.5437 28.597C26.1066 26.5095 25.6899 24.512 24.9533 22.498C25.4754 22.4181 26.0023 22.378 26.5299 22.378L26.5304 22.3785ZM30.0847 22.5335C30.079 22.5825 30.0737 22.6305 30.0671 22.6785C30.0737 22.63 30.0795 22.582 30.0847 22.5335ZM23.4466 22.8885C24.1971 24.925 24.7861 27.18 25.1814 29.3745C24.1753 29.8227 23.0933 30.053 22.0004 30.0515C20.1899 30.0542 18.4305 29.4206 17.0028 28.2515C18.4775 25.7395 20.7618 23.8385 23.4461 22.889L23.4466 22.8885Z" fill="black"/>
</svg>
