<svg id="katman_1" data-name="katman 1" xmlns="http://www.w3.org/2000/svg" viewBox="0 0 353.17 127.22"><defs><style>.cls-1{font-size:53.52px;fill:#1d1d1b;font-family:RZ-Regular, RZ;letter-spacing:0.18em;}.cls-2{letter-spacing:0.05em;}.cls-3{fill:#fff;}</style></defs><text class="cls-1" transform="translate(0 46.78)">YURIKAZA<tspan x="0" y="64.22">DIGI</tspan><tspan class="cls-2" x="154.24" y="64.22">T</tspan><tspan x="193.21" y="64.22">A</tspan></text><path d="M408.21,481.27h-45.3v-.48a.32.32,0,0,0-.35-.3h-.18l-.11-.54v0c-.06-.28-.3-1.47-.41-2h0c-1.47-7.18-7.34-35.94-8.38-41h0L353,434.7l-.75.16h0c-.36.1-.62.65-.42,1.58l8.86,43.4c.18.87.65,1.4,1,1.3h0l.6-.12.14,0,0-.11h.09v.38h-.06v1.36a.92.92,0,0,0,.92.92h44.8a.93.93,0,0,0,.93-.92v-1.36Z" transform="translate(-117 -372.02)"/><rect class="cls-3" x="287.6" y="109.98" width="2.13" height="0.65"/><rect x="287.78" y="110.3" width="1.76" height="0.22"/></svg>