<svg width="25" height="25" viewBox="0 0 25 25" fill="none" xmlns="http://www.w3.org/2000/svg">
<path d="M5.1025 10.8363C7.0825 14.7275 10.2725 17.9037 14.1637 19.8975L17.1887 16.8725C17.56 16.5013 18.11 16.3775 18.5913 16.5425C20.1313 17.0512 21.795 17.3263 23.5 17.3263C24.2563 17.3263 24.875 17.945 24.875 18.7013V23.5C24.875 24.2563 24.2563 24.875 23.5 24.875C10.5887 24.875 0.125 14.4113 0.125 1.5C0.125 0.74375 0.74375 0.125 1.5 0.125H6.3125C7.06875 0.125 7.6875 0.74375 7.6875 1.5C7.6875 3.21875 7.9625 4.86875 8.47125 6.40875C8.6225 6.89 8.5125 7.42625 8.1275 7.81125L5.1025 10.8363Z" fill="white"/>
</svg>
